<svg width="40" height="47" viewBox="0 0 40 47" fill="none" xmlns="http://www.w3.org/2000/svg">
<path fill-rule="evenodd" clip-rule="evenodd" d="M20 0C27.3632 0 34.2859 2.82475 39.4925 7.95376C39.9751 8.42914 40.0954 9.15503 39.7916 9.75717L21.4222 46.1323C21.1537 46.6639 20.6029 47 20.0002 47C19.3974 47 18.8466 46.6639 18.5782 46.1323L0.208674 9.75717C-0.0954226 9.15503 0.0248987 8.4293 0.507469 7.95376C5.71406 2.82475 12.6366 0 20 0ZM36.4267 9.39462C31.9253 5.34581 26.1354 3.12906 20 3.12906C13.8646 3.12906 8.0747 5.34581 3.57349 9.39446L4.80241 11.8283C8.99807 8.15869 14.3422 6.15194 20.0002 6.15194C25.6578 6.15194 31.0019 8.15869 35.1978 11.8282L36.4267 9.39462ZM10.7171 23.3106C10.6729 23.2973 10.6286 23.2872 10.5843 23.2778L8.30875 18.7718C8.60064 17.8741 9.22329 17.136 10.0702 16.6928C10.9316 16.2411 11.9202 16.1477 12.8537 16.4285C13.7867 16.7092 14.5523 17.3313 15.0104 18.1798C15.4683 19.0285 15.5634 20.0022 15.2776 20.9218C14.9926 21.8409 14.3613 22.5954 13.5001 23.0468C12.6384 23.4979 11.65 23.5916 10.7171 23.3106ZM12.2537 26.5835L20 41.9229L23.9669 34.0679C23.7399 34.0929 23.5096 34.107 23.2758 34.107C19.8713 34.107 17.1017 31.3786 17.1017 28.0248C17.1017 24.671 19.8715 21.9427 23.2758 21.9427C25.5311 21.9427 27.507 23.1408 28.5844 24.9239L33.7239 14.7469C30.0222 11.2202 25.1627 9.281 20.0002 9.281C14.8374 9.281 9.97783 11.2203 6.2763 14.7471L6.63245 15.4522C7.17381 14.8397 7.82891 14.3227 8.57879 13.9299C10.1899 13.0861 12.0376 12.9109 13.7818 13.436C15.5263 13.9611 16.9586 15.1243 17.8151 16.7113C18.6712 18.2982 18.8487 20.1184 18.315 21.8368C17.7823 23.5548 16.6019 24.9659 14.9912 25.8096C14.1293 26.261 13.1992 26.5199 12.2537 26.5835ZM23.2758 30.9779C21.6228 30.9779 20.2782 29.6532 20.2782 28.0248C20.2782 26.3964 21.6228 25.0717 23.2758 25.0717C24.9288 25.0717 26.2736 26.3964 26.2736 28.0248C26.2736 29.6532 24.9288 30.9779 23.2758 30.9779ZM27.8617 18.618C27.4553 18.618 27.0488 18.4653 26.7386 18.1597L24.1181 15.5784C23.4978 14.9675 23.4978 13.9767 24.1181 13.3657C24.7383 12.755 25.7438 12.755 26.364 13.3657L28.9847 15.9472C29.6048 16.5581 29.6048 17.5489 28.9847 18.1597C28.6744 18.4651 28.2681 18.618 27.8617 18.618Z" fill="#555555"/>
</svg>
