<svg width="48" height="40" viewBox="0 0 48 40" fill="none" xmlns="http://www.w3.org/2000/svg">
<path fill-rule="evenodd" clip-rule="evenodd" d="M47.6096 13.0498C47.1677 12.3507 46.2366 12.1381 45.5299 12.575L30.4086 21.9255V16.6479C30.4086 14.8595 29.1497 13.2584 26.8467 12.0909L39.7522 2.72739C40.4242 2.23958 40.5695 1.3054 40.0768 0.640375C39.5834 -0.0249631 38.639 -0.168549 37.9672 0.319101L23.4224 10.8721C21.6743 10.4514 19.7183 10.2275 17.6943 10.2275C14.4949 10.2275 11.4631 10.7856 9.15833 11.7993C6.46373 12.984 4.98024 14.7057 4.98024 16.6477V24.2528L0.61675 27.4187C-0.0554109 27.9065 -0.2007 28.8409 0.292186 29.5059C0.587918 29.9048 1.04601 30.1161 1.51039 30.1161C1.82013 30.1161 2.13262 30.0219 2.40161 29.827L4.98008 27.9562V28.623C4.98008 30.5648 6.46373 32.2866 9.15801 33.4715C9.66233 33.6931 10.2029 33.8917 10.771 34.0686L5.68929 37.2111C4.9825 37.6482 4.76762 38.5693 5.20929 39.2686C5.49568 39.7218 5.98743 39.9704 6.49063 39.9704C6.76365 39.9704 7.04037 39.8971 7.28891 39.7433L15.0955 34.9161C15.9415 34.9991 16.811 35.0431 17.6943 35.0431C20.8937 35.0431 23.9253 34.4848 26.2305 33.4715C28.9248 32.2866 30.4085 30.5648 30.4085 28.623V25.4472L47.1294 15.1076C47.8362 14.6702 48.0511 13.7492 47.6096 13.0498ZM17.6943 13.2138C23.5232 13.2138 27.3903 15.2807 27.3903 16.6479C27.3903 18.0149 23.5231 20.082 17.6943 20.082C11.8655 20.082 7.99828 18.0149 7.99828 16.6479C7.99828 15.2805 11.8655 13.2138 17.6943 13.2138ZM7.99828 20.9102V28.6227C7.99828 29.7119 10.4555 31.2447 14.4026 31.8228L27.3903 23.7916V20.9102C27.033 21.1175 26.6464 21.3134 26.2305 21.496C23.9253 22.5095 20.8937 23.0678 17.6943 23.0678C14.4949 23.0678 11.4635 22.5095 9.15817 21.496C8.74228 21.3132 8.35554 21.1175 7.99828 20.9102ZM27.3903 28.6227C27.3903 29.8103 24.4708 31.5253 19.8833 31.9553L27.3903 27.3132V28.6227ZM17.6943 18.8264C16.7546 18.8264 15.855 18.7424 15.1614 18.59C13.4299 18.2093 13.0663 17.3237 13.0663 16.6479C13.0663 15.9718 13.4297 15.0863 15.1614 14.7054C15.855 14.5529 16.7544 14.4691 17.6943 14.4691C18.6343 14.4691 19.5337 14.5529 20.2272 14.7054C21.9589 15.0861 22.3224 15.9718 22.3224 16.6479C22.3224 17.3237 21.9587 18.2093 20.2272 18.59C19.5337 18.7424 18.6341 18.8264 17.6943 18.8264Z" fill="#555555"/>
</svg>
